<?xml version="1.0" encoding="utf-8"?>
<svg viewBox="0 0 500 500" xmlns="http://www.w3.org/2000/svg" xmlns:bx="https://boxy-svg.com">
  <polygon points="240.468 107.307 240.468 416.767 347.116 348.811 453.787 416.767 453.787 107.307" style=""/>
  <g transform="matrix(0.572746, 0, 0, 0.625234, 95.578842, 112.862778)" style=""/>
  <g transform="matrix(0.572746, 0, 0, 0.625234, 95.578842, 112.862778)" style=""/>
  <g transform="matrix(0.572746, 0, 0, 0.625234, 95.578842, 112.862778)" style=""/>
  <g transform="matrix(0.572746, 0, 0, 0.625234, 95.578842, 112.862778)" style=""/>
  <g transform="matrix(0.572746, 0, 0, 0.625234, 95.578842, 112.862778)" style=""/>
  <g transform="matrix(0.572746, 0, 0, 0.625234, 95.578842, 112.862778)" style=""/>
  <g transform="matrix(0.572746, 0, 0, 0.625234, 95.578842, 112.862778)" style=""/>
  <g transform="matrix(0.572746, 0, 0, 0.625234, 95.578842, 112.862778)" style=""/>
  <g transform="matrix(0.572746, 0, 0, 0.625234, 95.578842, 112.862778)" style=""/>
  <g transform="matrix(0.572746, 0, 0, 0.625234, 95.578842, 112.862778)" style=""/>
  <g transform="matrix(0.572746, 0, 0, 0.625234, 95.578842, 112.862778)" style=""/>
  <g transform="matrix(0.572746, 0, 0, 0.625234, 95.578842, 112.862778)" style=""/>
  <g transform="matrix(0.572746, 0, 0, 0.625234, 95.578842, 112.862778)" style=""/>
  <g transform="matrix(0.572746, 0, 0, 0.625234, 95.578842, 112.862778)" style=""/>
  <g transform="matrix(0.572746, 0, 0, 0.625234, 95.578842, 112.862778)" style=""/>
  <path d="M 332.716 166.667 H 355.556 V 213.086 H 401.234 V 236.296 H 355.556 V 282.716 H 332.716 V 236.296 H 287.037 V 213.086 H 332.716 Z" style="fill: rgb(255, 255, 255);" bx:shape="cross 287.037 166.667 114.197 116.049 23.21 22.84 0.5 1@41c241dd"/>
</svg>