<?xml version="1.0" encoding="utf-8"?>
<svg viewBox="0 0 500 500" xmlns="http://www.w3.org/2000/svg">
  <polygon points="240.468 107.307 240.468 416.767 347.116 348.811 453.787 416.767 453.787 107.307" style="fill: rgb(33, 182, 118);"/>
  <g transform="matrix(0.572746, 0, 0, 0.625234, 95.578842, 112.862778)" style=""/>
  <g transform="matrix(0.572746, 0, 0, 0.625234, 95.578842, 112.862778)" style=""/>
  <g transform="matrix(0.572746, 0, 0, 0.625234, 95.578842, 112.862778)" style=""/>
  <g transform="matrix(0.572746, 0, 0, 0.625234, 95.578842, 112.862778)" style=""/>
  <g transform="matrix(0.572746, 0, 0, 0.625234, 95.578842, 112.862778)" style=""/>
  <g transform="matrix(0.572746, 0, 0, 0.625234, 95.578842, 112.862778)" style=""/>
  <g transform="matrix(0.572746, 0, 0, 0.625234, 95.578842, 112.862778)" style=""/>
  <g transform="matrix(0.572746, 0, 0, 0.625234, 95.578842, 112.862778)" style=""/>
  <g transform="matrix(0.572746, 0, 0, 0.625234, 95.578842, 112.862778)" style=""/>
  <g transform="matrix(0.572746, 0, 0, 0.625234, 95.578842, 112.862778)" style=""/>
  <g transform="matrix(0.572746, 0, 0, 0.625234, 95.578842, 112.862778)" style=""/>
  <g transform="matrix(0.572746, 0, 0, 0.625234, 95.578842, 112.862778)" style=""/>
  <g transform="matrix(0.572746, 0, 0, 0.625234, 95.578842, 112.862778)" style=""/>
  <g transform="matrix(0.572746, 0, 0, 0.625234, 95.578842, 112.862778)" style=""/>
  <g transform="matrix(0.572746, 0, 0, 0.625234, 95.578842, 112.862778)" style=""/>
  <path d="M 327.838 299.942 C 326.383 301.656 324.399 302.612 322.337 302.612 C 320.276 302.612 318.292 301.656 316.837 299.942 L 272.908 248.466 C 268.349 243.126 268.349 234.464 272.908 229.133 L 278.408 222.687 C 282.969 217.346 290.353 217.346 294.911 222.687 L 322.337 254.82 L 396.447 167.994 C 401.006 162.653 408.398 162.653 412.95 167.994 L 418.45 174.44 C 423.009 179.781 423.009 188.441 418.45 193.773 Z M 327.838 299.942" style="fill: rgb(255, 255, 255);"/>
</svg>