<?xml version="1.0" encoding="utf-8"?>
<svg viewBox="0 0 500 500" xmlns="http://www.w3.org/2000/svg" xmlns:bx="https://boxy-svg.com">
  <polygon points="98.073 -0.128 98.073 497.615 244.113 388.313 390.183 497.615 390.183 -0.128" style="fill: rgb(1, 7, 5);"/>
  <g transform="matrix(0.572746, 0, 0, 0.625234, 95.578842, 112.862778)" style=""/>
  <g transform="matrix(0.572746, 0, 0, 0.625234, 95.578842, 112.862778)" style=""/>
  <g transform="matrix(0.572746, 0, 0, 0.625234, 95.578842, 112.862778)" style=""/>
  <g transform="matrix(0.572746, 0, 0, 0.625234, 95.578842, 112.862778)" style=""/>
  <g transform="matrix(0.572746, 0, 0, 0.625234, 95.578842, 112.862778)" style=""/>
  <g transform="matrix(0.572746, 0, 0, 0.625234, 95.578842, 112.862778)" style=""/>
  <g transform="matrix(0.572746, 0, 0, 0.625234, 95.578842, 112.862778)" style=""/>
  <g transform="matrix(0.572746, 0, 0, 0.625234, 95.578842, 112.862778)" style=""/>
  <g transform="matrix(0.572746, 0, 0, 0.625234, 95.578842, 112.862778)" style=""/>
  <g transform="matrix(0.572746, 0, 0, 0.625234, 95.578842, 112.862778)" style=""/>
  <g transform="matrix(0.572746, 0, 0, 0.625234, 95.578842, 112.862778)" style=""/>
  <g transform="matrix(0.572746, 0, 0, 0.625234, 95.578842, 112.862778)" style=""/>
  <g transform="matrix(0.572746, 0, 0, 0.625234, 95.578842, 112.862778)" style=""/>
  <g transform="matrix(0.572746, 0, 0, 0.625234, 95.578842, 112.862778)" style=""/>
  <g transform="matrix(0.572746, 0, 0, 0.625234, 95.578842, 112.862778)" style=""/>
  <path d="M 239.852 95.34 H 271.659 V 157.838 H 335.274 V 189.087 H 271.659 V 251.585 H 239.852 V 189.087 H 176.237 V 157.838 H 239.852 Z" style="fill: rgb(216, 216, 216);" transform="matrix(0.999992, -0.004082, 0.004082, 0.999992, -18.116613, 26.592415)" bx:shape="cross 176.237 95.34 159.037 156.245 31.249 31.807 0.5 1@04e29a34"/>
</svg>