<?xml version="1.0" encoding="utf-8"?>
<svg viewBox="0 0 500 500" xmlns="http://www.w3.org/2000/svg">
  <polygon points="98.073 -0.128 98.073 497.615 244.113 388.313 390.183 497.615 390.183 -0.128" style="fill: rgb(33, 182, 118);"/>
  <g transform="matrix(0.572746, 0, 0, 0.625234, 95.578842, 112.862778)" style=""/>
  <g transform="matrix(0.572746, 0, 0, 0.625234, 95.578842, 112.862778)" style=""/>
  <g transform="matrix(0.572746, 0, 0, 0.625234, 95.578842, 112.862778)" style=""/>
  <g transform="matrix(0.572746, 0, 0, 0.625234, 95.578842, 112.862778)" style=""/>
  <g transform="matrix(0.572746, 0, 0, 0.625234, 95.578842, 112.862778)" style=""/>
  <g transform="matrix(0.572746, 0, 0, 0.625234, 95.578842, 112.862778)" style=""/>
  <g transform="matrix(0.572746, 0, 0, 0.625234, 95.578842, 112.862778)" style=""/>
  <g transform="matrix(0.572746, 0, 0, 0.625234, 95.578842, 112.862778)" style=""/>
  <g transform="matrix(0.572746, 0, 0, 0.625234, 95.578842, 112.862778)" style=""/>
  <g transform="matrix(0.572746, 0, 0, 0.625234, 95.578842, 112.862778)" style=""/>
  <g transform="matrix(0.572746, 0, 0, 0.625234, 95.578842, 112.862778)" style=""/>
  <g transform="matrix(0.572746, 0, 0, 0.625234, 95.578842, 112.862778)" style=""/>
  <g transform="matrix(0.572746, 0, 0, 0.625234, 95.578842, 112.862778)" style=""/>
  <g transform="matrix(0.572746, 0, 0, 0.625234, 95.578842, 112.862778)" style=""/>
  <g transform="matrix(0.572746, 0, 0, 0.625234, 95.578842, 112.862778)" style=""/>
  <path d="M 221.533 300.524 C 219.588 302.658 216.937 303.848 214.182 303.848 C 211.428 303.848 208.777 302.658 206.833 300.524 L 148.134 236.441 C 142.042 229.793 142.042 219.01 148.134 212.373 L 155.483 204.348 C 161.577 197.699 171.444 197.699 177.535 204.348 L 214.182 244.351 L 313.21 136.26 C 319.302 129.611 329.179 129.611 335.262 136.26 L 342.611 144.285 C 348.703 150.934 348.703 161.715 342.611 168.353 Z M 221.533 300.524" style="fill: rgb(255, 255, 255);"/>
</svg>