<?xml version="1.0" encoding="utf-8"?>
<svg viewBox="0 0 500 500" xmlns="http://www.w3.org/2000/svg" xmlns:bx="https://boxy-svg.com">
  <polygon points="61.129,0 61.129,321.188 160.585,250.657 260.059,321.188 260.059,0 " transform="matrix(1, 0, 0, 1, 29.382696, 36.958458)"/>
  <g transform="matrix(1, 0, 0, 1, 29.382696, 36.958458)"/>
  <g transform="matrix(1, 0, 0, 1, 29.382696, 36.958458)"/>
  <g transform="matrix(1, 0, 0, 1, 29.382696, 36.958458)"/>
  <g transform="matrix(1, 0, 0, 1, 29.382696, 36.958458)"/>
  <g transform="matrix(1, 0, 0, 1, 29.382696, 36.958458)"/>
  <g transform="matrix(1, 0, 0, 1, 29.382696, 36.958458)"/>
  <g transform="matrix(1, 0, 0, 1, 29.382696, 36.958458)"/>
  <g transform="matrix(1, 0, 0, 1, 29.382696, 36.958458)"/>
  <g transform="matrix(1, 0, 0, 1, 29.382696, 36.958458)"/>
  <g transform="matrix(1, 0, 0, 1, 29.382696, 36.958458)"/>
  <g transform="matrix(1, 0, 0, 1, 29.382696, 36.958458)"/>
  <g transform="matrix(1, 0, 0, 1, 29.382696, 36.958458)"/>
  <g transform="matrix(1, 0, 0, 1, 29.382696, 36.958458)"/>
  <g transform="matrix(1, 0, 0, 1, 29.382696, 36.958458)"/>
  <g transform="matrix(1, 0, 0, 1, 29.382696, 36.958458)"/>
  <path d="M 179.953 112.471 H 198.252 V 147.669 H 234.848 V 165.268 H 198.252 V 200.466 H 179.953 V 165.268 H 143.356 V 147.669 H 179.953 Z" style="fill: rgb(216, 216, 216);" bx:shape="cross 143.356 112.471 91.492 87.995 17.599 18.299 0.5 1@2d5fa42f"/>
</svg>